<mxfile host="app.diagrams.net" modified="2022-09-04T00:24:27.272Z" agent="5.0 (Windows NT 10.0; Win64; x64) AppleWebKit/537.36 (KHTML, like Gecko) Chrome/104.0.5112.102 Safari/537.36" etag="rbL2KpBFTf1bKzR10C6f" version="20.2.8" type="github">
  <diagram name="Page-1" id="7e0a89b8-554c-2b80-1dc8-d5c74ca68de4">
    <mxGraphModel dx="1422" dy="776" grid="1" gridSize="10" guides="1" tooltips="1" connect="1" arrows="1" fold="1" page="1" pageScale="1" pageWidth="1100" pageHeight="850" background="none" math="0" shadow="0">
      <root>
        <mxCell id="0" />
        <mxCell id="1" parent="0" />
        <mxCell id="fHeM8utW8B44hvfKekZx-1" value="" style="rounded=1;whiteSpace=wrap;html=1;rotation=90;" vertex="1" parent="1">
          <mxGeometry x="210" y="80" width="250" height="170" as="geometry" />
        </mxCell>
        <mxCell id="fHeM8utW8B44hvfKekZx-2" value="" style="shape=image;html=1;verticalAlign=top;verticalLabelPosition=bottom;labelBackgroundColor=#ffffff;imageAspect=0;aspect=fixed;image=https://cdn1.iconfinder.com/data/icons/fruit-136/64/Fruit_iconfree_Filled_Outline_raspberry-healthy-organic-food-fruit_icon-128.png" vertex="1" parent="1">
          <mxGeometry x="310.5" y="50" width="49" height="49" as="geometry" />
        </mxCell>
        <mxCell id="fHeM8utW8B44hvfKekZx-3" value="18" style="rounded=0;whiteSpace=wrap;html=1;rotation=90;" vertex="1" parent="1">
          <mxGeometry x="370" y="110" width="40" height="40" as="geometry" />
        </mxCell>
        <mxCell id="fHeM8utW8B44hvfKekZx-10" style="edgeStyle=orthogonalEdgeStyle;rounded=0;orthogonalLoop=1;jettySize=auto;html=1;entryX=1;entryY=0.54;entryDx=0;entryDy=0;entryPerimeter=0;endArrow=none;endFill=0;" edge="1" parent="1" source="fHeM8utW8B44hvfKekZx-4" target="fHeM8utW8B44hvfKekZx-8">
          <mxGeometry relative="1" as="geometry" />
        </mxCell>
        <mxCell id="fHeM8utW8B44hvfKekZx-4" value="GND" style="rounded=0;whiteSpace=wrap;html=1;rotation=90;" vertex="1" parent="1">
          <mxGeometry x="319.5" y="230" width="40" height="40" as="geometry" />
        </mxCell>
        <mxCell id="fHeM8utW8B44hvfKekZx-13" style="edgeStyle=orthogonalEdgeStyle;rounded=0;orthogonalLoop=1;jettySize=auto;html=1;endArrow=none;endFill=0;" edge="1" parent="1" source="fHeM8utW8B44hvfKekZx-5" target="fHeM8utW8B44hvfKekZx-12">
          <mxGeometry relative="1" as="geometry" />
        </mxCell>
        <mxCell id="fHeM8utW8B44hvfKekZx-5" value="21" style="rounded=0;whiteSpace=wrap;html=1;rotation=90;" vertex="1" parent="1">
          <mxGeometry x="370" y="200" width="40" height="40" as="geometry" />
        </mxCell>
        <mxCell id="fHeM8utW8B44hvfKekZx-7" style="edgeStyle=orthogonalEdgeStyle;rounded=0;orthogonalLoop=1;jettySize=auto;html=1;endArrow=none;endFill=0;" edge="1" parent="1" source="fHeM8utW8B44hvfKekZx-6" target="fHeM8utW8B44hvfKekZx-3">
          <mxGeometry relative="1" as="geometry" />
        </mxCell>
        <mxCell id="fHeM8utW8B44hvfKekZx-6" value="470" style="pointerEvents=1;verticalLabelPosition=bottom;shadow=0;dashed=0;align=center;html=1;verticalAlign=top;shape=mxgraph.electrical.resistors.resistor_2;" vertex="1" parent="1">
          <mxGeometry x="530" y="120" width="100" height="20" as="geometry" />
        </mxCell>
        <mxCell id="fHeM8utW8B44hvfKekZx-9" style="edgeStyle=orthogonalEdgeStyle;rounded=0;orthogonalLoop=1;jettySize=auto;html=1;entryX=0.88;entryY=0.55;entryDx=0;entryDy=0;entryPerimeter=0;endArrow=none;endFill=0;" edge="1" parent="1" source="fHeM8utW8B44hvfKekZx-8" target="fHeM8utW8B44hvfKekZx-6">
          <mxGeometry relative="1" as="geometry" />
        </mxCell>
        <mxCell id="fHeM8utW8B44hvfKekZx-8" value="" style="verticalLabelPosition=bottom;shadow=0;dashed=0;align=center;html=1;verticalAlign=top;shape=mxgraph.electrical.opto_electronics.led_1;pointerEvents=1;" vertex="1" parent="1">
          <mxGeometry x="671" y="97" width="100" height="65" as="geometry" />
        </mxCell>
        <mxCell id="fHeM8utW8B44hvfKekZx-14" style="edgeStyle=orthogonalEdgeStyle;rounded=0;orthogonalLoop=1;jettySize=auto;html=1;endArrow=none;endFill=0;" edge="1" parent="1" source="fHeM8utW8B44hvfKekZx-12">
          <mxGeometry relative="1" as="geometry">
            <mxPoint x="720" y="250" as="targetPoint" />
          </mxGeometry>
        </mxCell>
        <mxCell id="fHeM8utW8B44hvfKekZx-12" value="" style="shape=mxgraph.electrical.electro-mechanical.pushbutton;aspect=fixed;elSwitchState=off;" vertex="1" parent="1">
          <mxGeometry x="560" y="210" width="80" height="21.33" as="geometry" />
        </mxCell>
      </root>
    </mxGraphModel>
  </diagram>
</mxfile>
